# xmcd CD database file
#
# Track frame offsets:
#	150
#	3590
#	9910
#	14240
#	19670
#	22940
#	26375
#	29313
#	38355
#	48308
#	57413
#	64383
#	69658
#	73500
#	77078
#	81045
#	84388
#	86458
#	93475
#	114025
#	118495
#	138158
#	145295
#	148318
#	155030
#	164128
#	168468
#	172283
#	177370
#	189985
#	200195
#	208933
#	216165
#
# Disc length: 3134 seconds
#
# Revision: 0
# Processed by: cddbd v1.5.1PL0 Copyright (c) Steve Scherf et al.
# Submitted via: CDex 1.40Release
#
DISCID=d90c3c21
DTITLE=Robben Ford - Playin' The Blues
DYEAR=1993
DGENRE=Blues
TTITLE0=Intro and Part 1: Scales For Blues Soloing
TTITLE1=Ex 1. G Minor Pentatonic Scale
TTITLE2=Ex 2. Solo Demo Over G7 Vamp
TTITLE3=Ex 3. G Blues Scale
TTITLE4=Ex 4. Solo Demo Over G Blues Scale
TTITLE5=Ex 5. G Minor Pentatonic With Added 6th
TTITLE6=Ex 6. Solo Demo With Added 6th
TTITLE7=Ex 7. Solo Demo With All Scales
TTITLE8=Ex 8. The Blues Progression
TTITLE9=Ex 9. Blues Solo in Bb
TTITLE10=Ex 10. Part 2: Fingerings
TTITLE11=Ex 11
TTITLE12=Ex 12
TTITLE13=Ex 13. Part 3: String Bending
TTITLE14=Ex 14. Blues Scale Bends
TTITLE15=Ex 15. Blues Bends
TTITLE16=Ex 16. Bending To The 6th
TTITLE17=Ex 17. Bending Between Minor And Major 3rd
TTITLE18=Ex 21. Part 4:Five Blues Licks
TTITLE19=Ex 22. The Complete Blues Solo In C
TTITLE20=Ex 23. Part 5: Slo-Mo Blues
TTITLE21=Ex 24. Part 6: Chords and Comping
TTITLE22=Ex 25
TTITLE23=Ex 26
TTITLE24=Ex 27
TTITLE25=Ex 28. Part 7: Five Chord Voicings For the Blues
TTITLE26=Ex 29
TTITLE27=Ex 30
TTITLE28=Ex 31. Comping Demo Over A C Blues
TTITLE29=Ex 32. Comping Demo Over Bb
TTITLE30=Ex 33. Four Voicings Over Bb
TTITLE31=Ex 34. 2nd Comping Demo Over Bb
TTITLE32=Closing
EXTD=YEAR: 1993 ID3G: 0
EXTT0=
EXTT1=
EXTT2=
EXTT3=
EXTT4=
EXTT5=
EXTT6=
EXTT7=
EXTT8=
EXTT9=
EXTT10=
EXTT11=
EXTT12=
EXTT13=
EXTT14=
EXTT15=
EXTT16=
EXTT17=
EXTT18=
EXTT19=
EXTT20=
EXTT21=
EXTT22=
EXTT23=
EXTT24=
EXTT25=
EXTT26=
EXTT27=
EXTT28=
EXTT29=
EXTT30=
EXTT31=
EXTT32=
PLAYORDER=
